<mxfile host="app.diagrams.net" modified="2024-06-20T07:38:08.931Z" agent="Mozilla/5.0 (Windows NT 10.0; Win64; x64) AppleWebKit/537.36 (KHTML, like Gecko) Chrome/126.0.0.0 Safari/537.36 Edg/126.0.0.0" etag="PS2EulxuhMr0_grrfQup" version="24.4.13" type="github">
  <diagram name="第 1 页" id="hi-zR4LPoPJAsAlrDcKi">
    <mxGraphModel dx="746" dy="467" grid="1" gridSize="10" guides="1" tooltips="1" connect="1" arrows="1" fold="1" page="1" pageScale="1" pageWidth="827" pageHeight="1169" math="0" shadow="0">
      <root>
        <mxCell id="0" />
        <mxCell id="1" parent="0" />
        <mxCell id="I6p6TIEsWUNBBMkPv0-o-14" style="edgeStyle=orthogonalEdgeStyle;rounded=0;orthogonalLoop=1;jettySize=auto;html=1;exitX=0.5;exitY=1;exitDx=0;exitDy=0;entryX=0.5;entryY=0;entryDx=0;entryDy=0;" edge="1" parent="1" source="I6p6TIEsWUNBBMkPv0-o-2" target="I6p6TIEsWUNBBMkPv0-o-6">
          <mxGeometry relative="1" as="geometry" />
        </mxCell>
        <mxCell id="I6p6TIEsWUNBBMkPv0-o-2" value="OA正式服人员" style="rounded=0;whiteSpace=wrap;html=1;fillColor=#dae8fc;strokeColor=#6c8ebf;" vertex="1" parent="1">
          <mxGeometry x="279" y="405" width="120" height="60" as="geometry" />
        </mxCell>
        <mxCell id="I6p6TIEsWUNBBMkPv0-o-3" value="OA测试服人员" style="rounded=0;whiteSpace=wrap;html=1;fillColor=#f8cecc;strokeColor=#b85450;" vertex="1" parent="1">
          <mxGeometry x="279" y="800" width="120" height="60" as="geometry" />
        </mxCell>
        <mxCell id="I6p6TIEsWUNBBMkPv0-o-15" style="edgeStyle=orthogonalEdgeStyle;rounded=0;orthogonalLoop=1;jettySize=auto;html=1;exitX=0.5;exitY=1;exitDx=0;exitDy=0;entryX=0.5;entryY=0;entryDx=0;entryDy=0;" edge="1" parent="1" source="I6p6TIEsWUNBBMkPv0-o-6" target="I6p6TIEsWUNBBMkPv0-o-7">
          <mxGeometry relative="1" as="geometry" />
        </mxCell>
        <mxCell id="I6p6TIEsWUNBBMkPv0-o-6" value="1.执行插入到hr_org_element" style="rounded=0;whiteSpace=wrap;html=1;fillColor=#dae8fc;strokeColor=#6c8ebf;" vertex="1" parent="1">
          <mxGeometry x="281" y="488" width="118" height="34" as="geometry" />
        </mxCell>
        <mxCell id="I6p6TIEsWUNBBMkPv0-o-11" style="edgeStyle=orthogonalEdgeStyle;rounded=0;orthogonalLoop=1;jettySize=auto;html=1;exitX=0.5;exitY=1;exitDx=0;exitDy=0;entryX=0.5;entryY=0;entryDx=0;entryDy=0;" edge="1" parent="1" source="I6p6TIEsWUNBBMkPv0-o-7" target="I6p6TIEsWUNBBMkPv0-o-8">
          <mxGeometry relative="1" as="geometry" />
        </mxCell>
        <mxCell id="I6p6TIEsWUNBBMkPv0-o-7" value="2.执行插入到sys_org_element" style="rounded=0;whiteSpace=wrap;html=1;fillColor=#dae8fc;strokeColor=#6c8ebf;" vertex="1" parent="1">
          <mxGeometry x="278" y="569" width="118" height="34" as="geometry" />
        </mxCell>
        <mxCell id="I6p6TIEsWUNBBMkPv0-o-12" style="edgeStyle=orthogonalEdgeStyle;rounded=0;orthogonalLoop=1;jettySize=auto;html=1;exitX=0.5;exitY=1;exitDx=0;exitDy=0;entryX=0.5;entryY=0;entryDx=0;entryDy=0;" edge="1" parent="1" source="I6p6TIEsWUNBBMkPv0-o-8" target="I6p6TIEsWUNBBMkPv0-o-9">
          <mxGeometry relative="1" as="geometry" />
        </mxCell>
        <mxCell id="I6p6TIEsWUNBBMkPv0-o-8" value="3.执行插入到hr_staff_person_info" style="rounded=0;whiteSpace=wrap;html=1;fillColor=#dae8fc;strokeColor=#6c8ebf;" vertex="1" parent="1">
          <mxGeometry x="281" y="628" width="118" height="34" as="geometry" />
        </mxCell>
        <mxCell id="I6p6TIEsWUNBBMkPv0-o-16" style="edgeStyle=orthogonalEdgeStyle;rounded=0;orthogonalLoop=1;jettySize=auto;html=1;exitX=0.5;exitY=1;exitDx=0;exitDy=0;" edge="1" parent="1" source="I6p6TIEsWUNBBMkPv0-o-9" target="I6p6TIEsWUNBBMkPv0-o-3">
          <mxGeometry relative="1" as="geometry" />
        </mxCell>
        <mxCell id="I6p6TIEsWUNBBMkPv0-o-9" value="4.执行插入到&lt;div&gt;sys_org_person&lt;br&gt;&lt;/div&gt;" style="rounded=0;whiteSpace=wrap;html=1;fillColor=#dae8fc;strokeColor=#6c8ebf;" vertex="1" parent="1">
          <mxGeometry x="278" y="688" width="118" height="34" as="geometry" />
        </mxCell>
      </root>
    </mxGraphModel>
  </diagram>
</mxfile>
